<svg width="34" height="40" viewBox="0 0 34 40" fill="none" xmlns="http://www.w3.org/2000/svg">
<path d="M28.6667 14.04V11.6666C28.6667 5.22336 23.4434 0 17 0C10.5567 0 5.33337 5.22336 5.33337 11.6666V14.04C2.30009 15.3638 0.337749 18.3571 0.333374 21.6666V31.6666C0.338843 36.2667 4.06658 39.9945 8.66665 40H25.3333C29.9334 39.9945 33.6611 36.2667 33.6667 31.6666V21.6666C33.6624 18.3571 31.6999 15.3638 28.6667 14.04ZM18.6667 28.3334C18.6667 29.2538 17.9205 30 17 30C16.0795 30 15.3334 29.2538 15.3334 28.3334V25C15.3334 24.0795 16.0795 23.3334 17 23.3334C17.9205 23.3334 18.6667 24.0795 18.6667 25V28.3334ZM25.3334 13.3334H8.66665V11.6667C8.66665 7.06437 12.3976 3.33336 17 3.33336C21.6024 3.33336 25.3334 7.0643 25.3334 11.6667V13.3334Z" fill="#095D82"/>
</svg>
